<svg width="1058" height="271" viewBox="0 0 1058 271" fill="none" xmlns="http://www.w3.org/2000/svg">
<path d="M145.324 0.00494385C146.56 0.00331238 147.796 0.00168091 149.07 0C163.216 0.00210897 177.129 0.318284 191.137 2.37994C192.525 2.58273 192.525 2.58273 193.94 2.78961C219.407 6.92368 243.074 16.7878 261.137 35.3799C262.293 36.5401 262.293 36.5401 263.473 37.7237C276.386 51.3787 281.866 69.277 285.137 87.3799C286.765 87.4186 286.765 87.4186 288.426 87.4581C289.871 87.5144 291.317 87.5717 292.762 87.6299C293.475 87.6441 294.188 87.6583 294.922 87.6729C300.041 87.9077 303.067 89.031 307.137 92.3799C309.662 96.1679 309.425 99.2035 309.402 103.591C309.404 104.396 309.406 105.201 309.408 106.031C309.41 107.734 309.406 109.437 309.398 111.14C309.387 113.738 309.397 116.336 309.41 118.935C309.409 120.591 309.406 122.247 309.402 123.903C309.407 124.677 309.411 125.452 309.415 126.249C309.379 130.367 309.283 133.806 307.137 137.38C303.289 140.215 300.509 140.764 295.774 140.8C294.509 140.816 293.244 140.832 291.941 140.848C290.569 140.849 289.196 140.85 287.824 140.849C286.409 140.856 284.993 140.863 283.577 140.872C280.615 140.885 277.653 140.887 274.691 140.881C270.901 140.875 267.112 140.906 263.322 140.946C260.4 140.972 257.478 140.975 254.556 140.971C253.159 140.973 251.762 140.982 250.365 141C248.41 141.022 246.455 141.01 244.5 140.995C243.389 140.997 242.279 140.999 241.134 141.001C237.161 140.178 235.669 138.479 233.137 135.38C231.225 129.645 231.79 123.172 231.732 117.157C231.71 115.479 231.676 113.802 231.629 112.124C231.194 96.3806 231.194 96.3806 235.039 91.8018C238.575 89.0375 239.937 88.2518 244.27 88.2823C245.075 88.2855 245.881 88.2887 246.711 88.2921C247.974 88.3046 247.974 88.3046 249.262 88.3174C250.111 88.322 250.961 88.3265 251.836 88.3311C253.936 88.3429 256.037 88.3609 258.137 88.3799C253.556 68.0661 245.08 51.9336 227.137 40.3799C213.509 32.4117 198.885 28.1913 183.373 25.7449C181.732 25.4771 180.096 25.1777 178.463 24.8607C169.181 23.1873 160.08 23.1078 150.683 23.1741C148.037 23.1923 145.392 23.1946 142.746 23.1944C127.346 23.2247 111.763 23.2754 96.5744 26.0674C95.6167 26.2404 94.6591 26.4134 93.6725 26.5916C76.4759 29.8798 60.3761 35.6715 46.8439 47.0948C45.1369 48.3799 45.1369 48.3799 43.1369 48.3799C42.4769 49.6999 41.8169 51.0199 41.1369 52.3799C40.4769 52.3799 39.8169 52.3799 39.1369 52.3799C39.0544 52.8956 38.9719 53.4112 38.8869 53.9424C38.0196 56.7609 36.6231 59.1025 35.1251 61.6299C33.899 63.8012 32.9881 66.0391 32.1369 68.3799C31.4769 68.3799 30.8169 68.3799 30.1369 68.3799C30.0337 69.3906 29.9306 70.4012 29.8244 71.4424C29.5005 74.159 29.0499 76.7532 28.4288 79.4205C25.9086 90.2891 25.62 100.817 25.6994 111.942C25.7031 112.87 25.7068 113.798 25.7106 114.754C25.8633 141.594 29.3926 167.651 48.5939 187.982C57.4536 196.569 67.5596 202.242 79.1369 206.38C79.1619 207.278 79.187 208.177 79.2128 209.102C79.3078 212.431 79.4071 215.759 79.5092 219.087C79.5525 220.529 79.5942 221.97 79.6342 223.412C79.6919 225.482 79.7556 227.552 79.8204 229.622C79.8571 230.868 79.8938 232.115 79.9315 233.399C79.9398 236.306 79.9398 236.306 81.1369 238.38C86.0001 237.896 88.6385 236.652 92.4494 233.63C93.9866 232.431 93.9866 232.431 95.5548 231.208C96.3986 230.54 96.3986 230.54 97.2594 229.858C100.135 227.594 103.043 225.372 105.95 223.148C107.477 221.98 109.002 220.809 110.525 219.635C111.224 219.097 111.924 218.559 112.645 218.005C113.27 217.523 113.895 217.041 114.54 216.544C117.244 214.573 118.897 214.261 122.19 214.298C123.031 214.305 123.872 214.311 124.738 214.318C125.655 214.329 126.571 214.341 127.516 214.353C129.478 214.367 131.439 214.381 133.401 214.395C134.945 214.407 134.945 214.407 136.52 214.42C194.938 215.222 194.938 215.222 245.527 189.079C247.219 187.458 247.219 187.458 248.137 185.38C248.797 185.38 249.457 185.38 250.137 185.38C251.363 186.997 251.363 186.997 252.762 189.255C255.707 193.852 259.007 198.025 262.5 202.216C264.137 204.38 264.137 204.38 265.137 207.38C256.097 221.442 235.457 230.816 219.637 234.38C218.678 234.545 217.719 234.71 216.731 234.88C214.172 235.267 214.172 235.267 212.11 236.309C198.56 241.19 182.844 240.582 168.621 240.364C167.166 240.348 165.71 240.332 164.254 240.317C152.278 240.183 152.278 240.183 146.38 239.986C128.581 239.418 114.959 239.693 101.186 252.532C100.524 253.178 99.8625 253.823 99.1808 254.488C95.8344 257.585 92.0971 260.085 88.3244 262.63C87.6637 263.09 87.0031 263.549 86.3225 264.023C81.687 267.245 76.8621 270.38 71.0744 270.38C66.638 268.87 63.4269 266.797 61.2125 262.648C58.5134 255.299 58.8006 248.059 58.9494 240.317C58.9644 238.961 58.9781 237.605 58.9904 236.249C59.0255 232.959 59.0747 229.67 59.1369 226.38C58.5662 226.21 57.9956 226.04 57.4076 225.864C38.9041 220.07 22.1072 204.782 13.1681 187.743C2.84439 166.991 -0.04844 145.337 0.00648336 122.47C0.0117929 119.848 0.00654036 117.226 0.000135705 114.605C-0.00431663 106.388 0.0993809 98.1845 0.519667 89.9776C0.55003 89.2959 0.580394 88.6142 0.611677 87.9118C0.857904 83.7643 1.71284 80.2702 3.13685 76.3799C3.28252 75.4467 3.42818 74.5134 3.57826 73.5518C4.30907 69.402 5.65822 65.5897 7.07435 61.6299C7.33926 60.863 7.60416 60.096 7.87709 59.3057C9.88716 53.6296 9.88716 53.6296 12.1369 51.3799C12.7794 49.3112 12.7794 49.3112 13.1369 47.3799C13.7969 47.3799 14.4569 47.3799 15.1369 47.3799C15.1369 46.3899 15.1369 45.3999 15.1369 44.3799C16.1269 43.8849 16.1269 43.8849 17.1369 43.3799C17.6937 42.3487 18.2506 41.3174 18.8244 40.2549C22.4505 33.6901 27.8623 29.3357 34.1369 25.3799C34.8845 24.7547 35.6322 24.1296 36.4025 23.4854C44.4159 17.3151 54.583 13.4796 64.1369 10.3799C65.199 10.0306 66.2612 9.68127 67.3556 9.32135C73.9097 7.23108 80.3858 5.66312 87.1369 4.37994C88.424 4.11625 88.424 4.11625 89.7372 3.84723C108.196 0.193542 126.561 -0.00674263 145.324 0.00494385Z" fill="url(#paint0_linear_53_99)"/>
<path d="M393.074 3.75479C393.84 3.81782 394.606 3.88085 395.394 3.9458C402.524 4.54803 409.256 5.28752 416.137 7.37979C417.46 7.69446 418.786 7.99599 420.117 8.27432C446.096 13.9046 471.161 27.5034 486.012 50.1923C497.84 69.1842 501.249 90.548 501.375 112.591C501.379 113.265 501.383 113.939 501.388 114.633C501.408 118.209 501.423 121.784 501.432 125.359C501.441 128.272 501.462 131.184 501.494 134.097C501.798 162.463 500.062 190.008 479.719 211.911C474.824 216.591 469.208 221.345 463.137 224.38C463.122 225.434 463.108 226.488 463.093 227.573C463.035 231.508 462.957 235.442 462.875 239.376C462.841 241.074 462.813 242.773 462.791 244.471C462.757 246.921 462.704 249.371 462.649 251.821C462.642 252.573 462.636 253.324 462.629 254.098C462.468 259.965 461.445 265.072 457.137 269.38C454.887 269.751 454.887 269.751 452.137 269.817C451.25 269.857 450.363 269.897 449.449 269.938C440.786 268.477 433.602 262.84 426.762 257.63C426.001 257.06 425.241 256.49 424.457 255.903C423.684 255.323 422.91 254.743 422.114 254.145C421.304 253.553 420.495 252.961 419.661 252.351C417.137 250.38 417.137 250.38 414.643 247.952C405.064 239.254 395.285 240.231 382.949 240.505C379.039 240.55 375.129 240.57 371.219 240.575C369.799 240.58 369.799 240.58 368.35 240.585C359.682 240.537 351.591 239.258 343.137 237.38C341.718 237.076 340.298 236.772 338.879 236.469C329.055 234.303 320.167 230.777 311.137 226.38C309.638 225.653 309.638 225.653 308.11 224.911C285.126 213.04 269.146 194.143 256.137 172.38C255.541 171.427 255.541 171.427 254.933 170.456C252.66 166.729 251.74 163.669 251.137 159.38C255.281 159.131 259.421 158.95 263.57 158.83C264.978 158.78 266.385 158.712 267.792 158.625C279.463 157.922 279.463 157.922 283.481 161.422C285.266 163.995 286.71 166.595 288.137 169.38C300.798 186.947 318.608 199.702 339.137 206.38C340.269 206.748 341.401 207.117 342.567 207.497C356.922 211.877 371.109 212.718 386.012 213.005C387.683 213.043 389.353 213.082 391.024 213.122C395.061 213.217 399.099 213.301 403.137 213.38C403.137 214.04 403.137 214.7 403.137 215.38C403.714 215.648 404.291 215.916 404.886 216.192C407.194 217.41 409.099 218.78 411.149 220.392C411.907 220.985 412.666 221.579 413.448 222.19C414.232 222.81 415.016 223.429 415.824 224.067C416.59 224.667 417.355 225.267 418.143 225.886C418.908 226.486 419.673 227.086 420.461 227.704C421.23 228.304 421.999 228.904 422.791 229.522C424.395 230.792 425.98 232.085 427.55 233.398C428.327 234.038 429.105 234.678 429.906 235.337C430.6 235.921 431.293 236.504 432.007 237.106C434.587 238.649 436.179 238.705 439.137 238.38C439.467 238.05 439.797 237.72 440.137 237.38C440.124 235.119 440.054 232.858 439.961 230.599C439.387 208.463 439.387 208.463 442.441 203.082C446.03 199.522 450.441 198.027 455.137 196.38C465.246 189.958 471.722 177.03 474.367 165.618C474.697 163.978 475.016 162.336 475.324 160.692C475.489 159.896 475.653 159.1 475.823 158.28C481.986 126.665 481.144 88.1306 463.137 60.3798C460.352 56.8022 457.361 53.5638 454.137 50.3798C453.251 49.4613 453.251 49.4613 452.348 48.5243C443.722 40.2219 431.761 34.0039 420.137 31.3798C418.83 31.0547 417.524 30.7263 416.219 30.3954C413.472 29.6995 410.722 29.0168 407.969 28.3446C404.137 27.3798 404.137 27.3798 401.024 26.3212C389.259 23.4716 376.48 24.1643 364.436 24.1396C361.603 24.1299 358.772 24.0988 355.94 24.0673C346.479 24.0118 337.237 24.388 327.86 25.7079C327.029 25.8246 326.197 25.9414 325.341 26.0616C311.775 28.1768 299.23 33.2611 287.512 40.3407C285.137 41.3798 285.137 41.3798 283.106 41.4071C280.045 39.8099 278.611 37.3632 276.637 34.5673C274.005 30.8673 271.452 27.4914 268.137 24.3798C269.512 20.2547 272.228 19.3409 275.887 17.4423C276.559 17.0889 277.23 16.7356 277.922 16.3715C284.107 13.2166 290.426 11.14 297.137 9.37979C298.313 9.02916 299.488 8.67854 300.699 8.31729C301.834 8.00791 302.968 7.69854 304.137 7.37979C305.334 7.02594 305.334 7.02594 306.555 6.66494C333.996 -0.94276 364.981 1.40019 393.074 3.75479Z" fill="url(#paint1_linear_53_99)"/>
<path d="M581.137 75.3799C589.387 75.3799 597.637 75.3799 606.137 75.3799C612.135 87.8034 617.844 100.338 623.449 112.942C623.799 113.727 624.149 114.512 624.509 115.32C635.137 139.187 635.137 139.187 635.137 142.38C635.797 142.38 636.457 142.38 637.137 142.38C637.53 141.129 637.923 139.879 638.328 138.591C640.228 132.902 642.626 127.475 645.074 122.005C645.549 120.936 646.023 119.868 646.512 118.767C647.523 116.491 648.536 114.216 649.551 111.941C651.181 108.281 652.802 104.618 654.422 100.954C655.493 98.5334 656.565 96.1129 657.637 93.6924C658.141 92.553 658.645 91.4136 659.164 90.2397C659.64 89.1684 660.116 88.097 660.606 86.9932C661.023 86.0526 661.44 85.1119 661.869 84.1428C663.224 81.1898 664.684 78.2858 666.137 75.3799C674.717 75.3799 683.297 75.3799 692.137 75.3799C692.137 111.35 692.137 147.32 692.137 184.38C685.537 184.38 678.937 184.38 672.137 184.38C671.807 158.97 671.477 133.56 671.137 107.38C668.332 113.588 665.527 119.796 662.637 126.192C661.77 128.108 660.903 130.023 660.01 131.996C654.868 143.385 649.943 154.845 645.137 166.38C639.197 166.38 633.257 166.38 627.137 166.38C626.003 163.719 624.868 161.059 623.699 158.317C616.279 140.962 608.687 123.679 601.137 106.38C600.807 132.12 600.477 157.86 600.137 184.38C593.867 184.38 587.597 184.38 581.137 184.38C581.137 148.41 581.137 112.44 581.137 75.3799Z" fill="#3B4873"/>
<path d="M949.137 73.3799C955.407 73.3799 961.677 73.3799 968.137 73.3799C968.137 88.8899 968.137 104.4 968.137 120.38C968.797 120.38 969.457 120.38 970.137 120.38C970.386 119.775 970.635 119.171 970.891 118.548C972.335 116.035 973.598 115.154 976.074 113.692C976.764 113.276 977.454 112.86 978.164 112.431C985.154 108.707 995.601 109.43 1003.23 111.028C1010.5 113.656 1015.7 118.365 1019.39 125.13C1025.88 139.649 1024.92 152.61 1020.14 167.38C1016.85 175.025 1010.85 180.286 1003.7 184.317C995.32 186.956 984.255 186.968 976.324 183.067C973.44 181.367 970.793 179.415 968.137 177.38C968.137 179.36 968.137 181.34 968.137 183.38C961.867 183.38 955.597 183.38 949.137 183.38C949.137 147.08 949.137 110.78 949.137 73.3799Z" fill="#3A4873"/>
<path d="M152.93 83.1221C161.434 87.9687 168.545 94.5177 171.664 104.064C173.579 113.448 172.453 122.841 168.137 131.38C162.185 140.221 155.02 144.086 145.137 147.38C133.508 148.228 124.245 146.96 115.176 139.333C107.447 131.93 103.873 124.332 103.574 113.63C103.584 104.097 106.982 96.5323 113.387 89.4424C123.955 79.7944 139.924 76.9536 152.93 83.1221Z" fill="#D8598C"/>
<path d="M864.137 111.38C870.407 111.38 876.677 111.38 883.137 111.38C883.146 112.787 883.156 114.194 883.165 115.643C883.205 120.894 883.271 126.143 883.344 131.393C883.373 133.66 883.394 135.926 883.408 138.193C883.429 141.463 883.476 144.732 883.527 148.001C883.529 149.004 883.53 150.008 883.531 151.042C883.664 157.491 884.68 162.836 888.137 168.38C891.964 171.038 896.598 170.943 901.137 170.38C906.005 168.662 909.68 165.968 912.137 161.38C912.875 157.54 912.858 153.758 912.844 149.856C912.859 148.755 912.874 147.654 912.89 146.519C912.933 143.014 912.941 139.51 912.949 136.005C912.973 133.623 912.998 131.242 913.026 128.86C913.088 123.033 913.121 117.207 913.137 111.38C919.737 111.38 926.337 111.38 933.137 111.38C933.137 135.47 933.137 159.56 933.137 184.38C926.867 184.38 920.597 184.38 914.137 184.38C913.642 180.42 913.642 180.42 913.137 176.38C912.652 176.778 912.167 177.177 911.668 177.587C910.998 178.117 910.327 178.647 909.637 179.192C908.987 179.714 908.337 180.237 907.668 180.774C901.438 184.726 895.448 185.94 888.137 185.88C886.949 185.873 886.949 185.873 885.738 185.867C879.764 185.692 875.467 184.746 871.137 180.38C869.992 179.235 869.992 179.235 868.824 178.067C863.917 170.252 863.726 163.369 863.844 154.349C863.848 153.117 863.852 151.885 863.857 150.616C863.873 146.704 863.911 142.792 863.949 138.88C863.966 136.218 863.978 133.557 863.99 130.896C864.023 124.39 864.075 117.885 864.137 111.38Z" fill="#3B4874"/>
<path d="M710.137 111.38C716.407 111.38 722.677 111.38 729.137 111.38C729.152 112.828 729.166 114.275 729.181 115.767C729.239 121.155 729.317 126.543 729.399 131.93C729.433 134.259 729.461 136.588 729.483 138.917C729.517 142.271 729.569 145.624 729.625 148.978C729.632 150.013 729.638 151.049 729.645 152.116C729.763 157.954 730.305 162.234 733.137 167.38C736.647 170.581 740.193 170.963 744.789 170.794C748.864 170.075 752.179 168.257 755.137 165.38C758.754 159.845 758.609 154.684 758.649 148.294C758.667 147.237 758.685 146.18 758.703 145.091C758.757 141.729 758.791 138.367 758.825 135.005C758.858 132.72 758.892 130.435 758.928 128.149C759.013 122.56 759.08 116.97 759.137 111.38C765.407 111.38 771.677 111.38 778.137 111.38C778.137 135.14 778.137 158.9 778.137 183.38C772.197 183.38 766.257 183.38 760.137 183.38C759.642 179.915 759.642 179.915 759.137 176.38C758.353 177.122 757.57 177.865 756.762 178.63C747.605 186.053 737.435 186.476 726.137 185.38C720.173 183.841 716.53 180.518 713.137 175.38C709.787 168.216 709.74 161.255 709.844 153.47C709.848 152.262 709.853 151.054 709.857 149.809C709.874 145.978 709.911 142.148 709.95 138.317C709.965 135.709 709.978 133.1 709.991 130.491C710.024 124.121 710.075 117.75 710.137 111.38Z" fill="#3A4772"/>
<path d="M842.531 115.063C845.867 117.858 848.508 120.271 850.137 124.38C849.762 126.63 849.762 126.63 849.137 128.38C843.922 130.118 839.644 131.012 834.137 130.38C831.824 127.942 831.824 127.942 830.137 125.38C826.914 124.306 824.522 124.247 821.137 124.255C820.085 124.252 819.033 124.25 817.949 124.247C815.056 124.256 815.056 124.256 812.137 125.38C812.137 128.35 812.137 131.32 812.137 134.38C818.136 137.844 824.117 140.062 830.762 141.88C839.127 144.205 846.234 146.731 851.137 154.38C853.089 160.709 852.839 167.439 850.235 173.532C846.5 179.819 839.845 183.084 833.137 185.38C821.16 188.041 808.663 186.82 798.137 180.38C794.226 177.672 791.108 174.787 789.137 170.38C789.467 169.39 789.797 168.4 790.137 167.38C794.902 165.199 800.947 163.391 806.137 164.38C808.262 166.755 808.262 166.755 810.137 169.38C813.644 171.761 816.978 171.711 821.137 171.755C822.354 171.783 823.571 171.812 824.824 171.841C828.193 171.648 828.193 171.648 830.543 169.548C832.371 167.406 832.371 167.406 832.637 164.317C832.438 161.325 832.438 161.325 830.384 159.786C828.122 158.37 826.255 157.639 823.688 156.95C822.839 156.712 821.99 156.473 821.115 156.228C819.358 155.751 817.601 155.277 815.842 154.806C806.815 152.262 797.851 148.571 792.824 140.192C791.104 133.154 791.517 126.745 795.137 120.38C806.32 107.022 828.459 105.169 842.531 115.063Z" fill="#3B4873"/>
<path d="M167.469 103.282C169.387 104.38 169.387 104.38 172.137 106.38C172.812 118.002 171.675 127.609 164.074 136.817C158.472 142.597 150.507 146.988 142.352 147.583C130.364 147.755 121.949 145.821 113.137 137.38C108.707 132.543 105.952 127.68 104.137 121.38C104.467 120.39 104.797 119.4 105.137 118.38C105.797 118.71 106.457 119.04 107.137 119.38C107.137 120.37 107.137 121.36 107.137 122.38C113.376 125.153 120.997 125.962 127.457 123.493C133.209 119.959 137.854 114.862 142.445 109.963C149.22 102.849 157.804 99.5427 167.469 103.282Z" fill="#3F5085"/>
<path d="M991.137 125.38C997.175 127.466 999.702 130.971 1002.89 136.317C1005.78 143.628 1005.12 152.685 1002.45 159.942C1000.21 164.744 997.505 167.999 992.887 170.692C987.142 172.129 982.166 172.344 976.887 169.38C972.71 166.809 970.119 162.785 968.137 158.38C967.494 155.177 967.478 152.137 967.575 148.88C967.564 148.077 967.553 147.274 967.541 146.446C967.619 140.088 969.129 134.48 973.655 129.816C979.382 124.922 983.807 124.81 991.137 125.38Z" fill="#F7F6FB"/>
<path d="M1036.14 111.38C1042.41 111.38 1048.68 111.38 1055.14 111.38C1055.14 135.14 1055.14 158.9 1055.14 183.38C1048.87 183.38 1042.6 183.38 1036.14 183.38C1036.14 159.62 1036.14 135.86 1036.14 111.38Z" fill="#3A4874"/>
<path d="M1049.14 73.3799C1052.89 75.3949 1054.77 76.8345 1057.14 80.3799C1057.57 85.7269 1057.61 89.0445 1054.14 93.3799C1050.32 96.7868 1047.51 96.8888 1042.55 96.7353C1039.11 96.228 1037.42 94.9525 1035.14 92.3799C1032.6 88.8794 1032.57 85.5959 1033.14 81.3799C1037.31 74.9222 1041.28 72.2985 1049.14 73.3799Z" fill="#3B4874"/>
<path d="M237.137 90.3799C237.797 90.7099 238.457 91.0399 239.137 91.3799C238.663 92.0605 238.188 92.7411 237.7 93.4424C234.141 100.133 235.047 108.002 235.137 115.38C235.292 128.029 235.292 128.029 234.137 134.38C231.227 131.47 231.794 128.423 231.766 124.521C231.757 123.739 231.748 122.957 231.739 122.151C231.724 120.493 231.715 118.835 231.712 117.178C231.7 114.653 231.651 112.131 231.6 109.606C231.59 107.994 231.583 106.382 231.578 104.771C231.559 104.02 231.539 103.27 231.519 102.497C231.569 96.671 233.193 94.3403 237.137 90.3799Z" fill="#819AE1"/>
<path d="M251.137 159.38C253.777 159.38 256.417 159.38 259.137 159.38C259.137 159.71 259.137 160.04 259.137 160.38C257.487 160.71 255.837 161.04 254.137 161.38C254.137 163.03 254.137 164.68 254.137 166.38C253.477 166.05 252.817 165.72 252.137 165.38C251.512 162.317 251.512 162.317 251.137 159.38Z" fill="#B986D1"/>
<rect x="81.6655" y="55.3799" width="6.71955" height="36.9575" rx="1" transform="rotate(33.7425 81.6655 55.3799)" fill="#3F5085"/>
<rect x="89.4399" y="60.563" width="6.71955" height="36.9575" rx="1" transform="rotate(33.7425 89.4399 60.563)" fill="#3F5085"/>
<rect x="61.137" y="144.633" width="6.71955" height="36.9575" rx="1" transform="rotate(-33.7541 61.137 144.633)" fill="#3F5085"/>
<rect x="68.9114" y="139.604" width="6.98851" height="16.9325" rx="1" transform="rotate(-33.7541 68.9114 139.604)" fill="#3F5085"/>
<rect x="80.5732" y="156.444" width="6.98851" height="16.9325" rx="1" transform="rotate(-33.7541 80.5732 156.444)" fill="#3F5085"/>
<rect x="172.571" y="69.6289" width="6.98851" height="16.9325" rx="1" transform="rotate(-33.7541 172.571 69.6289)" fill="#3F5085"/>
<rect x="184.233" y="86.4697" width="6.98851" height="16.9325" rx="1" transform="rotate(-33.7541 184.233 86.4697)" fill="#3F5085"/>
<rect x="193.831" y="131.829" width="6.98851" height="16.9325" rx="1" transform="rotate(34.5284 193.831 131.829)" fill="#3F5085"/>
<rect x="183.465" y="147.378" width="6.98851" height="16.9325" rx="1" transform="rotate(34.5284 183.465 147.378)" fill="#3F5085"/>
<rect x="201.605" y="137.012" width="6.98851" height="16.9325" rx="1" transform="rotate(34.5284 201.605 137.012)" fill="#3F5085"/>
<rect x="191.239" y="152.561" width="6.98851" height="16.9325" rx="1" transform="rotate(34.5284 191.239 152.561)" fill="#3F5085"/>
<rect x="209.38" y="142.195" width="6.98851" height="16.9325" rx="1" transform="rotate(34.5284 209.38 142.195)" fill="#3F5085"/>
<rect x="199.013" y="157.744" width="6.98851" height="16.9325" rx="1" transform="rotate(34.5284 199.013 157.744)" fill="#3F5085"/>
<rect x="188.12" y="59.2629" width="6.98851" height="16.9325" rx="1" transform="rotate(-33.7541 188.12 59.2629)" fill="#3F5085"/>
<rect x="199.782" y="76.1035" width="6.98851" height="16.9325" rx="1" transform="rotate(-33.7541 199.782 76.1035)" fill="#3F5085"/>
<rect x="76.686" y="134.267" width="6.71955" height="36.9575" rx="1" transform="rotate(-33.7541 76.686 134.267)" fill="#3F5085"/>
<rect x="181.137" y="64.1135" width="6.71955" height="36.9575" rx="1" transform="rotate(-33.7541 181.137 64.1135)" fill="#3F5085"/>
<rect x="97.2146" y="65.7458" width="6.71955" height="36.9575" rx="1" transform="rotate(33.7425 97.2146 65.7458)" fill="#3F5085"/>
<circle cx="380.637" cy="113.88" r="36.5" fill="url(#paint2_linear_53_99)"/>
<defs>
<linearGradient id="paint0_linear_53_99" x1="23.137" y1="46.8799" x2="309.137" y2="251.88" gradientUnits="userSpaceOnUse">
<stop stop-color="#B2D7FB"/>
<stop offset="0.456731" stop-color="#8B76E5"/>
<stop offset="0.860577" stop-color="#E87CAD"/>
</linearGradient>
<linearGradient id="paint1_linear_53_99" x1="235.637" y1="110.38" x2="536.137" y2="270.38" gradientUnits="userSpaceOnUse">
<stop stop-color="#AE8ADC"/>
<stop offset="0.322115" stop-color="#E87CAC"/>
<stop offset="1" stop-color="#F47E94"/>
</linearGradient>
<linearGradient id="paint2_linear_53_99" x1="380.637" y1="77.3799" x2="417.137" y2="159.88" gradientUnits="userSpaceOnUse">
<stop stop-color="#E94A5D"/>
<stop offset="1" stop-color="#D4334B"/>
</linearGradient>
</defs>
</svg>
